<?xml version="1.0" encoding="utf-8"?>
<!-- Generator: Adobe Illustrator 25.4.1, SVG Export Plug-In . SVG Version: 6.00 Build 0)  -->
<svg version="1.1" id="Layer_1" xmlns="http://www.w3.org/2000/svg" xmlns:xlink="http://www.w3.org/1999/xlink" x="0px" y="0px"
	 viewBox="0 0 200 170" style="enable-background:new 0 0 200 170;" xml:space="preserve">
<style type="text/css">
	.st0{fill:#FFFFFF;}
	.st1{fill:#182642;}
	.st2{fill:#F9B151;}
</style>
<g>
	<path class="st0" d="M29.1,91.9v19.2h-4.8V91.9H29.1z M41.1,91.9l-7.8,9l8.2,10.2h-5.6l-8.1-10.1l7.9-9.1H41.1z"/>
	<path class="st0" d="M47.9,91.9v19.2h-4.4V91.9H47.9z M46.6,91.9h9.7v3.8h-9.7V91.9z M46.6,99.2h9.1v3.7h-9.1V99.2z M46.6,107.3
		h9.7v3.8h-9.7V107.3z"/>
	<path class="st0" d="M77.8,91.9v20.2l-13.3-11.8v10.8h-4.4V91l13.3,11.8V91.9H77.8z"/>
	<path class="st0" d="M79.9,91.9h15.2v4.1h-5.3v15.1h-4.6V96.1h-5.3V91.9z"/>
	<path class="st0" d="M101.7,91.9v19.2h-4.4V91.9H101.7z M100.3,91.9h9.7v3.8h-9.7V91.9z M100.3,99.2h9.1v3.7h-9.1V99.2z
		 M100.3,107.3h9.7v3.8h-9.7V107.3z"/>
	<path class="st0" d="M118.6,91.9v19.2h-4.8V91.9H118.6z M130.6,91.9l-7.8,9l8.2,10.2h-5.6l-8.1-10.1l7.9-9.1H130.6z"/>
	<path class="st0" d="M137.5,91.9v19.2H133V91.9H137.5z M136.1,91.9h9.7v3.8h-9.7V91.9z M136.1,99.2h9.1v3.7h-9.1V99.2z
		 M136.1,107.3h9.7v3.8h-9.7V107.3z"/>
	<path class="st0" d="M167.3,91.9v20.2L154,100.3v10.8h-4.4V91l13.3,11.8V91.9H167.3z"/>
	<path class="st0" d="M55,117.4c0.4-0.3,0.8-0.5,1.3-0.5c0.5,0,0.9,0.2,1.3,0.5s0.5,0.7,0.5,1.2c0,0.5-0.2,0.9-0.5,1.2
		s-0.8,0.5-1.3,0.5c-0.5,0-0.9-0.2-1.3-0.5s-0.5-0.7-0.5-1.2C54.5,118.1,54.7,117.7,55,117.4z M57.8,122.1v9.3h-3v-9.3H57.8z"/>
	<path class="st0" d="M70.7,124.5c-0.2-0.3-0.6-0.4-1-0.4c-0.3,0-0.6,0.1-0.9,0.2c-0.2,0.1-0.4,0.3-0.6,0.6
		c-0.1,0.3-0.2,0.6-0.2,0.9v5.7h-3.1v-9.3H68v1.4c0.3-0.5,0.6-0.9,1.1-1.2c0.5-0.3,1-0.4,1.7-0.4c1.2,0,2,0.3,2.5,0.9
		s0.8,1.5,0.8,2.6v6H71v-5.7C71,125.2,70.9,124.8,70.7,124.5z"/>
	<path class="st0" d="M81.2,124.9v-2.8h9.1l-4.7,6.5h4v2.8h-9.3l4.9-6.5H81.2z"/>
	<path class="st0" d="M96.8,117.4c0.4-0.3,0.8-0.5,1.3-0.5c0.5,0,0.9,0.2,1.3,0.5s0.5,0.7,0.5,1.2c0,0.5-0.2,0.9-0.5,1.2
		s-0.8,0.5-1.3,0.5c-0.5,0-0.9-0.2-1.3-0.5s-0.5-0.7-0.5-1.2C96.3,118.1,96.4,117.7,96.8,117.4z M99.5,122.1v9.3h-3v-9.3H99.5z"/>
	<path class="st0" d="M109.6,128c0.2,0.4,0.5,0.6,0.9,0.8c0.4,0.2,0.8,0.3,1.2,0.3c0.4,0,0.7-0.1,1.1-0.2c0.3-0.1,0.7-0.3,1-0.5
		s0.5-0.5,0.7-0.7v3c-0.3,0.3-0.7,0.5-1.2,0.6c-0.5,0.2-1.1,0.2-1.8,0.2c-1,0-1.9-0.2-2.8-0.6c-0.8-0.4-1.5-1-1.9-1.7
		c-0.5-0.7-0.7-1.6-0.7-2.6c0-1,0.2-1.8,0.7-2.6s1.1-1.3,1.9-1.7c0.8-0.4,1.7-0.6,2.8-0.6c0.7,0,1.3,0.1,1.8,0.2
		c0.5,0.2,0.9,0.3,1.2,0.6v3c-0.2-0.3-0.4-0.5-0.7-0.7c-0.3-0.2-0.6-0.4-1-0.5c-0.4-0.1-0.7-0.2-1-0.2c-0.4,0-0.9,0.1-1.2,0.3
		c-0.4,0.2-0.7,0.5-0.9,0.9s-0.3,0.8-0.3,1.2C109.3,127.2,109.4,127.7,109.6,128z"/>
	<path class="st0" d="M124.4,131.4h-3.1v-15.8h3.1V131.4z M127.1,124.5c-0.2-0.3-0.6-0.4-1.1-0.4c-0.3,0-0.6,0.1-0.9,0.2
		c-0.2,0.1-0.4,0.3-0.6,0.6c-0.1,0.2-0.2,0.6-0.2,0.9h-0.5c0-0.7,0.1-1.4,0.4-2c0.2-0.6,0.6-1.1,1.1-1.4c0.5-0.4,1.1-0.5,1.9-0.5
		s1.4,0.1,1.9,0.4c0.5,0.3,0.8,0.7,1,1.2c0.2,0.5,0.3,1.2,0.3,1.9v6.1h-3.1v-5.7C127.4,125.2,127.3,124.8,127.1,124.5z"/>
	<path class="st0" d="M142.7,122.1v2.5h-6.2v-2.5H142.7z M141,118.9v12.6h-2.9v-12.6H141z"/>
</g>
<path class="st0" d="M95.8,63.5"/>
<g>
	<path class="st0" d="M129.5,44.6H62.1c-2.1,0-3.4-1.9-2.3-3.4l7.2-9.8c0.5-0.7,1.4-1.1,2.3-1.1h53c0.9,0,1.8,0.4,2.3,1.1l7.2,9.8
		C132.9,42.7,131.6,44.6,129.5,44.6z"/>
	<path class="st0" d="M127.3,54.1c-0.5,0.3-1,0.5-1.6,0.5h-6.4h-47h-6.4c-0.5,0-1.1-0.2-1.6-0.5l-12.5-8.7c-2.3-1.6-5.1,0.8-5.1,4.4
		v15.3c0,2.7,1.6,5,3.5,5h22h47h22c1.9,0,3.5-2.2,3.5-5V49.9c0-3.7-2.8-6.1-5.1-4.4L127.3,54.1z"/>
	<g>
		<path class="st1" d="M115.6,64.5H76c-0.7,0-1.3-0.6-1.3-1.3v-1.3c0-0.7,0.6-1.3,1.3-1.3h39.6c0.7,0,1.3,0.6,1.3,1.3v1.3
			C116.9,63.9,116.3,64.5,115.6,64.5z"/>
	</g>
</g>
<g>
	<path class="st2" d="M44.7,125.5H26c-1.8,0-3.3,0.6-3.3,1.3c0,0.7,1.5,1.3,3.3,1.3h18.6V125.5z"/>
	<path class="st2" d="M165.6,125.5h-18.6v2.6h18.6c1.8,0,3.3-0.6,3.3-1.3C168.9,126.1,167.4,125.5,165.6,125.5z"/>
</g>
</svg>
