<svg xmlns="http://www.w3.org/2000/svg" width="43.901" height="98.55" viewBox="0 0 43.901 98.55">
  <g id="Group_163" data-name="Group 163" transform="translate(-728.107 -1025.983)">
    <path id="Path_9" data-name="Path 9" d="M60.56,580.472v98.55H31.917a15.267,15.267,0,0,1-15.258-15.27V595.729a15.256,15.256,0,0,1,15.258-15.258Z" transform="translate(711.448 445.511)" fill="#00317f"/>
    <text id="NL" transform="translate(733.314 1111.163)" fill="#e6f4f8" font-size="26" font-family="SegoeUI, Segoe UI"><tspan x="0" y="0">NL</tspan></text>
    <g id="Group_8" data-name="Group 8" transform="translate(736.483 1043.607)">
      <g id="Group_7" data-name="Group 7">
        <path id="Path_10" data-name="Path 10" d="M41,612.707c-.356,0-.713,0-1.069,0-.221,0-.221,0-.292-.221-.107-.331-.212-.663-.324-.993-.017-.049-.012-.116-.067-.148-.053.013-.044.057-.053.087-.117.351-.231.7-.346,1.055-.072.218-.071.22-.293.22H37.343l-.019.04c.032.027.063.055.1.08.27.2.542.391.81.59.315.234.271.127.161.48s-.234.726-.352,1.1c.081.006.116-.046.159-.077.313-.225.626-.45.934-.681a.161.161,0,0,1,.229,0c.3.227.609.447.916.668a.311.311,0,0,0,.177.094c-.021-.063-.037-.117-.054-.17-.117-.358-.231-.718-.352-1.075a.174.174,0,0,1,.074-.235c.3-.207.591-.424.882-.64.057-.041.126-.069.161-.139C41.116,612.682,41.055,612.707,41,612.707Z" transform="translate(-18.645 -588.163)" fill="#f9c200"/>
        <path id="Path_11" data-name="Path 11" d="M30.185,612.718c-.1,0-.159-.027-.186-.129-.042-.154-.094-.306-.144-.457-.087-.267-.177-.534-.275-.83-.032.085-.054.139-.072.193-.114.352-.234.7-.34,1.056-.037.121-.087.173-.223.169-.385-.012-.772-.005-1.157,0-.042,0-.1-.033-.134.044l.171.127c.294.214.586.43.882.64.082.058.117.105.073.212-.069.167-.116.343-.171.516-.08.247-.158.493-.249.78.086-.058.139-.09.189-.127.3-.216.6-.429.9-.654a.178.178,0,0,1,.262,0c.3.225.6.438.9.655.049.035.09.085.157.091a.145.145,0,0,0-.017-.11c-.122-.38-.239-.76-.37-1.137a.169.169,0,0,1,.074-.231c.321-.225.637-.459.953-.69.036-.027.092-.041.09-.118C31.053,612.717,30.619,612.713,30.185,612.718Z" transform="translate(-21.395 -588.174)" fill="#f9c200"/>
        <path id="Path_12" data-name="Path 12" d="M27.872,609.173c-.407,0-.814-.005-1.221,0a.171.171,0,0,1-.2-.145c-.109-.36-.23-.718-.347-1.075-.018-.054-.018-.118-.082-.157-.018.045-.035.083-.048.125-.122.372-.244.745-.361,1.119a.16.16,0,0,1-.182.134c-.385-.006-.771,0-1.156,0-.054,0-.114-.024-.159.023.01.044.045.059.073.08.322.235.643.474.971.7a.168.168,0,0,1,.072.231c-.127.37-.243.744-.363,1.116-.014.044-.05.086-.008.143.315-.229.626-.455.938-.68.236-.173.236-.172.469,0l.949.688a.12.12,0,0,0-.006-.116c-.125-.387-.244-.774-.376-1.159a.154.154,0,0,1,.067-.215c.31-.214.613-.441.917-.664.049-.036.116-.058.134-.125C27.93,609.158,27.9,609.173,27.872,609.173Z" transform="translate(-22.401 -589.172)" fill="#f9c200"/>
        <path id="Path_13" data-name="Path 13" d="M43.535,609.173c-.284,0-.284,0-.37-.263-.119-.369-.24-.736-.365-1.117a.171.171,0,0,0-.073.122c-.125.379-.254.757-.371,1.138a.144.144,0,0,1-.167.122c-.378,0-.757,0-1.135,0h-.18c-.006.072.036.082.063.1.316.231.634.461.952.692.136.1.136.1.082.267-.116.358-.234.717-.349,1.075a.239.239,0,0,0-.021.167c.366-.265.721-.518,1.069-.778a.161.161,0,0,1,.229,0c.308.232.62.457.934.681.036.026.067.082.13.051a.233.233,0,0,0-.024-.144c-.117-.36-.229-.719-.353-1.076a.173.173,0,0,1,.078-.234c.322-.225.638-.457.954-.69.033-.026.105-.035.075-.113Z" transform="translate(-17.635 -589.173)" fill="#f9c200"/>
        <path id="Path_14" data-name="Path 14" d="M24.875,605.869c.253.194.515.379.773.566.1.068.193.134.326.227l-.4-1.241c-.059-.185-.059-.186.094-.3.3-.217.6-.434.9-.654.041-.031.1-.053.125-.126H25.406c-.182,0-.184,0-.239-.168q-.2-.609-.4-1.22a.2.2,0,0,0-.076.132l-.3.909c-.036.109-.044.253-.119.32s-.236.024-.36.026c-.36,0-.719,0-1.135,0,.085.065.127.1.171.131.311.226.62.456.934.678a.155.155,0,0,1,.069.213c-.126.362-.24.73-.357,1.094-.017.053-.06.1-.022.171.037-.024.073-.046.108-.072.317-.23.638-.456.95-.694A.166.166,0,0,1,24.875,605.869Z" transform="translate(-22.781 -590.549)" fill="#f9c200"/>
        <path id="Path_15" data-name="Path 15" d="M44.994,605.7c-.048-.153-.167-.315-.123-.452s.243-.213.376-.312c.253-.189.51-.374.766-.56L46,604.344H44.792c-.244,0-.244,0-.321-.239l-.371-1.146c-.062.031-.06.078-.073.12q-.179.547-.356,1.1c-.055.168-.057.169-.239.169h-1.26l-.014.037c.057.042.113.087.171.13l.828.6c.166.121.166.122.1.311-.113.351-.227.7-.34,1.055-.014.045-.049.089-.015.137.053,0,.081-.035.114-.059q.451-.325.9-.652c.163-.118.163-.118.325,0l1.052.76c-.03-.1-.048-.168-.069-.235C45.149,606.185,45.067,605.945,44.994,605.7Z" transform="translate(-17.27 -590.548)" fill="#f9c200"/>
        <path id="Path_16" data-name="Path 16" d="M41.883,600.294c.141.1.141.1.085.28-.116.358-.234.717-.348,1.075-.014.042-.049.089,0,.137.027-.017.051-.03.075-.046.33-.239.66-.475.986-.719a.142.142,0,0,1,.207,0c.159.126.326.243.492.361.193.14.385.279.592.426a.458.458,0,0,0-.04-.206q-.164-.507-.326-1.015c-.062-.19-.062-.191.105-.312.3-.218.6-.434.9-.654.035-.024.094-.036.083-.107-.432,0-.861,0-1.29,0a.167.167,0,0,1-.2-.144c-.108-.362-.23-.718-.348-1.076-.018-.055-.041-.11-.06-.164a.111.111,0,0,0-.063.082c-.122.379-.245.759-.369,1.138-.054.162-.055.162-.226.162H40.881l-.013.036.081.063Z" transform="translate(-17.637 -591.921)" fill="#f9c200"/>
        <path id="Path_17" data-name="Path 17" d="M26.414,599.219c-.119-.364-.239-.728-.36-1.1a.31.31,0,0,0-.083.164c-.112.344-.222.69-.339,1.033-.078.231-.014.2-.281.2-.356,0-.712,0-1.069,0a.284.284,0,0,0-.177.027l1.03.75c.148.108.148.109.092.277q-.195.6-.39,1.195l.027.033c.059-.041.118-.081.177-.123.3-.217.6-.432.9-.654a.143.143,0,0,1,.207,0c.319.239.643.471.967.705.035.024.066.071.135.054-.134-.408-.263-.808-.393-1.206-.055-.173-.055-.175.089-.279.3-.218.6-.435.9-.654.042-.031.083-.064.167-.127H26.822C26.509,599.517,26.511,599.516,26.414,599.219Z" transform="translate(-22.404 -591.924)" fill="#f9c200"/>
        <path id="Path_18" data-name="Path 18" d="M31.35,595.986H30.216c-.17,0-.17,0-.223-.164-.049-.145-.092-.29-.14-.435l-.274-.828c-.037.1-.055.15-.072.2-.117.358-.236.715-.348,1.076a.183.183,0,0,1-.211.158c-.385-.01-.771,0-1.156,0-.044,0-.1-.03-.136.04q.5.364,1,.728c.159.116.159.117.1.3-.117.358-.234.717-.348,1.075-.014.044-.063.086-.012.144l.123-.085.9-.654c.153-.11.153-.109.311.005.27.2.539.394.81.591.068.049.139.1.211.144a.126.126,0,0,0-.006-.117c-.123-.379-.241-.759-.372-1.137-.036-.105-.028-.171.071-.232s.213-.152.319-.229l.737-.536C31.449,595.966,31.4,595.986,31.35,595.986Z" transform="translate(-21.394 -592.938)" fill="#f9c200"/>
        <path id="Path_19" data-name="Path 19" d="M32.563,594.772c.322.235.643.473.97.7a.167.167,0,0,1,.076.231c-.117.328-.217.661-.322.993a.786.786,0,0,0-.069.277c.045-.03.076-.049.1-.069.329-.239.66-.475.985-.719a.147.147,0,0,1,.209,0c.161.125.328.241.492.361l.578.419a.159.159,0,0,0-.006-.143c-.122-.373-.241-.745-.366-1.115a.174.174,0,0,1,.073-.234c.322-.224.637-.459.953-.69.035-.027.1-.035.083-.112H35.058c-.18,0-.181,0-.238-.176-.116-.351-.229-.7-.344-1.055-.018-.053-.01-.118-.082-.146-.022.062-.042.123-.063.185-.113.344-.234.686-.335,1.034a.192.192,0,0,1-.23.162c-.218-.01-.437,0-.655,0h-.619C32.5,594.738,32.534,594.751,32.563,594.772Z" transform="translate(-20.019 -593.296)" fill="#f9c200"/>
        <path id="Path_20" data-name="Path 20" d="M35.065,614.01c-.186,0-.188,0-.243-.171-.107-.331-.209-.664-.321-.993-.024-.072-.022-.161-.108-.221-.122.376-.239.748-.365,1.115-.108.32-.024.266-.365.268-.389,0-.78,0-1.174,0,.015.082.077.1.121.132.293.214.587.426.881.64.162.118.163.118.1.316-.051.158-.107.316-.157.475-.077.239-.153.479-.244.763l1.061-.768c.2-.14.136-.132.329.005.337.24.669.484,1,.728.035-.064,0-.108-.012-.155-.117-.358-.235-.715-.348-1.075-.066-.208-.067-.159.094-.277.3-.22.6-.435.9-.655.042-.031.1-.051.122-.122-.041,0-.068-.006-.1-.006C35.85,614.009,35.458,614.01,35.065,614.01Z" transform="translate(-20.02 -587.798)" fill="#f9c200"/>
        <path id="Path_21" data-name="Path 21" d="M37.458,596.114c.3.223.606.449.917.664a.161.161,0,0,1,.074.217c-.068.191-.131.384-.194.577-.072.225-.143.449-.227.718.1-.067.157-.1.213-.146.3-.217.6-.432.9-.654.076-.057.135-.072.207,0a1.048,1.048,0,0,0,.105.078l1,.723c-.023-.091-.033-.145-.05-.2-.116-.358-.229-.718-.352-1.074a.182.182,0,0,1,.085-.249c.317-.218.626-.449.935-.678.035-.026.1-.035.078-.11H39.969c-.254,0-.254,0-.329-.231l-.29-.887a1.149,1.149,0,0,0-.112-.288c-.032.092-.055.157-.077.222-.116.351-.235.7-.342,1.053a.159.159,0,0,1-.185.134c-.363-.005-.727,0-1.089,0h-.22C37.357,596.063,37.415,596.083,37.458,596.114Z" transform="translate(-18.644 -592.933)" fill="#f9c200"/>
      </g>
    </g>
  </g>
</svg>
